<?xml version="1.0" standalone="no"?>
<!DOCTYPE svg PUBLIC "-//W3C//DTD SVG 20010904//EN"
 "http://www.w3.org/TR/2001/REC-SVG-20010904/DTD/svg10.dtd">
<svg version="1.0" xmlns="http://www.w3.org/2000/svg"
 width="16.000000pt" height="16.000000pt" viewBox="0 0 16.000000 16.000000"
 preserveAspectRatio="xMidYMid meet">
<metadata>
Created by potrace 1.11, written by Peter Selinger 2001-2013
</metadata>
<g transform="translate(0.000000,16.000000) scale(0.001000,-0.001000)"
fill="#000000" stroke="none">
<path d="M11220 10774 c-355 -43 -616 -157 -797 -348 -157 -165 -235 -346
-252 -584 -25 -337 72 -609 279 -781 182 -151 418 -243 843 -327 479 -94 638
-154 769 -291 94 -100 128 -186 135 -353 8 -172 -20 -277 -104 -388 -175 -229
-567 -326 -1045 -257 -239 35 -591 155 -805 276 -29 16 -55 29 -58 29 -3 0 -4
-114 -3 -252 l3 -253 125 -42 c247 -84 539 -149 780 -174 167 -17 512 -7 670
21 323 57 547 164 711 338 117 125 187 262 226 442 27 129 25 413 -5 532 -91
364 -321 587 -749 728 -67 22 -254 67 -415 100 -339 70 -448 98 -555 140 -214
85 -307 222 -307 455 0 231 99 387 309 490 339 166 879 126 1405 -105 52 -23
101 -44 108 -47 9 -4 12 47 12 236 l0 241 -27 11 c-49 18 -229 67 -346 93
-230 52 -366 67 -627 71 -135 2 -261 1 -280 -1z"/>
<path d="M5400 8918 c0 -1928 1 -1890 -51 -2063 -56 -189 -150 -281 -334 -330
-34 -9 -124 -19 -207 -22 l-148 -6 0 -204 0 -203 168 0 c308 0 514 52 690 172
148 102 263 287 322 518 56 220 53 111 57 2098 l4 1832 -251 0 -250 0 0 -1792z"/>
<path d="M6870 8901 l0 -1811 250 0 250 0 0 765 0 765 283 0 c155 0 323 -5
372 -10 251 -28 393 -119 545 -350 34 -52 183 -337 331 -632 l269 -538 265 0
c146 0 265 2 265 4 0 2 -134 269 -298 594 -201 397 -324 628 -377 708 -100
152 -249 304 -348 355 l-68 35 83 32 c166 63 324 196 404 339 110 196 148 451
108 721 -35 237 -114 403 -255 538 -146 139 -317 217 -589 270 -73 15 -184 18
-787 21 l-703 4 0 -1810z m1245 1399 c194 -22 321 -75 422 -176 111 -112 156
-244 156 -459 1 -150 -14 -221 -69 -334 -47 -96 -128 -176 -226 -224 -149 -73
-260 -87 -700 -87 l-328 0 0 645 0 645 328 0 c180 0 368 -5 417 -10z"/>
</g>
</svg>
